<svg width="24" height="25" viewBox="0 0 24 25" fill="none" xmlns="http://www.w3.org/2000/svg">
<path d="M3 10.3182V14.3057C3 16.9363 3 18.2516 3.59458 19.2165C3.92224 19.7483 4.36988 20.1959 4.90164 20.5236C5.86658 21.1182 7.18189 21.1182 9.8125 21.1182H13.8C16.7998 21.1182 18.2997 21.1182 19.3511 20.3542C19.6907 20.1075 19.9893 19.8089 20.2361 19.4693C21 18.4178 21 16.9179 21 13.9182V10.3182C21 7.31838 21 5.81849 20.2361 4.76702C19.9893 4.42744 19.6907 4.12881 19.3511 3.8821C18.2997 3.11816 16.7998 3.11816 13.8 3.11816H10.2C7.20021 3.11816 5.70032 3.11816 4.64886 3.8821C4.30928 4.12881 4.01065 4.42744 3.76393 4.76702C3 5.81849 3 7.31838 3 10.3182Z" stroke="#2B2730" stroke-width="1.5"/>
<path fill-rule="evenodd" clip-rule="evenodd" d="M14.638 9.61372C14.2538 10.0083 14.2778 10.33 14.2778 11.0168V12.099H16.8333L16.3125 14.2636H14.2778V21.1182H11.9444V14.2636H10V12.099H11.9444V11.0168C11.9444 10.2605 12.0484 9.04408 12.9064 8.16282C13.8734 7.16971 15.0556 6.91255 17 7.27332V9.4379C15.4916 9.05626 14.8412 9.40498 14.638 9.61372Z" fill="#2B2730"/>
</svg>
