<svg width="24" height="25" viewBox="0 0 24 25" fill="none" xmlns="http://www.w3.org/2000/svg">
<path d="M10.2 21.1182H13.8C16.7998 21.1182 18.2997 21.1182 19.3511 20.3542C19.6907 20.1075 19.9893 19.8089 20.2361 19.4693C21 18.4178 21 16.9179 21 13.9182V10.3182C21 7.31838 21 5.81849 20.2361 4.76702C19.9893 4.42744 19.6907 4.12881 19.3511 3.8821C18.2997 3.11816 16.7998 3.11816 13.8 3.11816H10.2C7.20021 3.11816 5.70032 3.11816 4.64886 3.8821C4.30928 4.12881 4.01065 4.42744 3.76393 4.76702C3 5.81849 3 7.31838 3 10.3182V13.9182C3 16.9179 3 18.4178 3.76393 19.4693C4.01065 19.8089 4.30928 20.1075 4.64886 20.3542C5.70032 21.1182 7.20021 21.1182 10.2 21.1182Z" stroke="#2B2730" stroke-width="1.5"/>
<circle cx="12" cy="12.1182" r="4" stroke="#2B2730" stroke-width="1.5"/>
<circle cx="17" cy="7.11816" r="1" fill="#2B2730"/>
</svg>
